# xmcd CD database file
#
# Track frame offsets:
#	225
#	21357
#	34755
#	49982
#	60967
#	77620
#	92577
#	106000
#	120942
#	134870
#	150505
#	162675
#	175580
#	183470
#	191387
#	205347
#	218327
#	232305
#	247330
#	269560
#	285770
#
# Disc length: 3960 seconds
#
# Revision: 4
# Processed by: cddbd v1.4PL0 Copyright (c) Steve Scherf et al.
# Submitted via: CDex 1.40Beta9
#
DISCID=240f7515
DTITLE=Esther Ofarim - Hayu Lailot
DYEAR=1973
DGENRE=Folk
TTITLE0=Hayu Lailot
TTITLE1=Rakefet
TTITLE2=Ba'yit Lishna'yim
TTITLE3=Kibui Orot
TTITLE4=Hare'ut
TTITLE5=Hu Lo Yada Et Shma
TTITLE6=Neula Hi Dalti
TTITLE7=Stav
TTITLE8=Ish Ilem Gavoah Vedak
TTITLE9=Machrozet
TTITLE10=Shirat Hanoded
TTITLE11=Al Giv'ot Sheich Habrek
TTITLE12=El Hama'ayan
TTITLE13=Shtu Adarim
TTITLE14=Agadat Hamichre
TTITLE15=Hadayag
TTITLE16=Dumam
TTITLE17=Alai Giv'a
TTITLE18=Yudke
TTITLE19=Cha'yai Adam
TTITLE20=Pizmon Layakinton
EXTD=YEAR: 1973 ID3G: 80
EXTT0=
EXTT1=
EXTT2=
EXTT3=
EXTT4=
EXTT5=
EXTT6=
EXTT7=
EXTT8=
EXTT9=
EXTT10=
EXTT11=
EXTT12=
EXTT13=
EXTT14=
EXTT15=
EXTT16=
EXTT17=
EXTT18=
EXTT19=
EXTT20=
PLAYORDER=
